Coordinates
version=1
nRows=24
nColumns=38
inDegrees=no

Units are S.I. units (second, meters, Newtons, ...)
If the header above contains a line with 'inDegrees', this indicates whether rotational values are in degrees (yes) or radians (no).

endheader
time	pelvis_tilt	pelvis_list	pelvis_rotation	pelvis_tx	pelvis_ty	pelvis_tz	hip_flexion_r	hip_adduction_r	hip_rotation_r	knee_angle_r	ankle_angle_r	subtalar_angle_r	mtp_angle_r	hip_flexion_l	hip_adduction_l	hip_rotation_l	knee_angle_l	ankle_angle_l	subtalar_angle_l	mtp_angle_l	lumbar_extension	lumbar_bending	lumbar_rotation	arm_flex_r	arm_add_r	arm_rot_r	elbow_flex_r	pro_sup_r	wrist_flex_r	wrist_dev_r	arm_flex_l	arm_add_l	arm_rot_l	elbow_flex_l	pro_sup_l	wrist_flex_l	wrist_dev_l
182.58	-2.92558	1.36037	-1.62389	0.934573	-0.602878	1.08782	-0.214086	-0.0152867	-0.130747	0.167727	-0.407893	0	0	0.0215137	-0.113272	-0.215443	0.601763	-0.197164	0	0	-0.703991	-0.262421	0.431198	0.0358964	-0.955582	-0.238975	1.84927	1.41742	0	0	0.946837	0.97425	-0.69057	1.14448	0	0	0
182.59	-2.93956	1.35904	-1.61011	0.935197	-0.605677	1.08764	-0.211287	-0.0115354	-0.127393	0.169961	-0.408499	0	0	0.0162563	-0.121293	-0.223459	0.630715	-0.190725	0	0	-0.701352	-0.258922	0.43487	0.0292601	-0.954142	-0.240973	1.85119	1.41605	0	0	0.941329	0.975038	-0.690911	1.14631	0	0	0
182.6	-2.95195	1.35738	-1.5979	0.935696	-0.608436	1.0875	-0.20924	-0.00820037	-0.123829	0.1717	-0.40892	0	0	0.00922929	-0.128563	-0.23108	0.657449	-0.185106	0	0	-0.698752	-0.255546	0.438585	0.0218917	-0.952063	-0.243789	1.85304	1.41531	0	0	0.935575	0.975898	-0.691299	1.14782	0	0	0
182.61	-2.96236	1.35519	-1.58748	0.936182	-0.611236	1.08744	-0.207859	-0.00528462	-0.119782	0.172849	-0.409767	0	0	-0.00018102	-0.134635	-0.236703	0.680108	-0.180822	0	0	-0.696565	-0.252672	0.442168	0.014526	-0.949276	-0.247065	1.85424	1.41539	0	0	0.930928	0.977104	-0.692984	1.14808	0	0	0
182.62	-2.97105	1.35303	-1.57849	0.936532	-0.614032	1.0874	-0.206772	-0.0028195	-0.115613	0.173597	-0.410756	0	0	-0.0110186	-0.139465	-0.240734	0.699556	-0.17673	0	0	-0.694333	-0.24987	0.44525	0.00675864	-0.946249	-0.250759	1.85553	1.41626	0	0	0.927275	0.97876	-0.696696	1.14783	0	0	0
182.63	-2.97953	1.35137	-1.56948	0.93675	-0.616793	1.08731	-0.205189	-0.000417774	-0.111775	0.174365	-0.411682	0	0	-0.0222656	-0.143472	-0.24314	0.71716	-0.172675	0	0	-0.691555	-0.246729	0.447917	-0.000689886	-0.942749	-0.254155	1.85666	1.41787	0	0	0.923445	0.980549	-0.70092	1.14803	0	0	0
182.64	-2.98755	1.35039	-1.56047	0.936799	-0.619509	1.08717	-0.20303	0.00175303	-0.108565	0.174922	-0.412334	0	0	-0.0337056	-0.146416	-0.243246	0.732541	-0.169638	0	0	-0.68821	-0.243303	0.449589	-0.00733027	-0.938761	-0.256545	1.85752	1.41963	0	0	0.91802	0.981889	-0.703152	1.14967	0	0	0
182.65	-2.996	1.34952	-1.55061	0.936726	-0.622265	1.08698	-0.20083	0.00391497	-0.105784	0.175364	-0.412988	0	0	-0.0453112	-0.149198	-0.242519	0.74722	-0.166828	0	0	-0.684864	-0.239553	0.450639	-0.0140061	-0.934529	-0.259079	1.85859	1.42191	0	0	0.912475	0.983517	-0.705739	1.15183	0	0	0
182.66	-3.00356	1.34758	-1.5407	0.936499	-0.625178	1.08683	-0.199907	0.00590008	-0.104308	0.175734	-0.413835	0	0	-0.0579596	-0.151506	-0.240108	0.761448	-0.16404	0	0	-0.682389	-0.23557	0.451554	-0.0219464	-0.930043	-0.263448	1.85938	1.42517	0	0	0.908931	0.986147	-0.711237	1.15229	0	0	0
182.67	-3.00983	1.34547	-1.53166	0.936183	-0.62817	1.08669	-0.19904	0.00762171	-0.103278	0.176386	-0.41466	0	0	-0.0710364	-0.153035	-0.236199	0.774201	-0.161955	0	0	-0.680138	-0.23162	0.452238	-0.0302218	-0.925053	-0.268893	1.85997	1.42903	0	0	0.907366	0.989502	-0.719677	1.15172	0	0	0
182.68	-3.01666	1.34386	-1.52264	0.935869	-0.631052	1.08652	-0.197505	0.00928397	-0.101678	0.177134	-0.415595	0	0	-0.0844383	-0.154556	-0.232864	0.785447	-0.160646	0	0	-0.677189	-0.227775	0.453111	-0.0378539	-0.91967	-0.273831	1.86021	1.43378	0	0	0.906723	0.993246	-0.730623	1.15121	0	0	0
182.69	-3.02429	1.34189	-1.5128	0.935473	-0.633922	1.08635	-0.196612	0.0110597	-0.100097	0.177481	-0.416758	0	0	-0.0986429	-0.156227	-0.229717	0.795737	-0.159646	0	0	-0.67461	-0.223766	0.45346	-0.0444944	-0.913974	-0.278107	1.86017	1.44159	0	0	0.900603	0.993656	-0.730457	1.15179	0	0	0
182.7	-3.03142	1.33949	-1.50346	0.935032	-0.636831	1.08621	-0.196473	0.0127243	-0.0983485	0.177215	-0.418459	0	0	-0.113767	-0.157856	-0.227165	0.804559	-0.159674	0	0	-0.672562	-0.219885	0.453592	-0.050789	-0.9084	-0.281912	1.85985	1.45703	0	0	0.885223	0.987984	-0.709713	1.15315	0	0	0
182.71	-3.0377	1.33718	-1.49449	0.934487	-0.639883	1.08607	-0.195991	0.0141671	-0.0971958	0.177433	-0.419808	0	0	-0.12869	-0.159082	-0.224063	0.81223	-0.161371	0	0	-0.670802	-0.215889	0.45322	-0.0573294	-0.902668	-0.286427	1.85985	1.47069	0	0	0.867886	0.981064	-0.684193	1.15505	0	0	0
182.72	-3.04351	1.33497	-1.48562	0.933848	-0.643048	1.08589	-0.195314	0.0154914	-0.0963869	0.177591	-0.420417	0	0	-0.143265	-0.160133	-0.220728	0.819216	-0.163292	0	0	-0.669221	-0.211795	0.452286	-0.0640259	-0.896919	-0.291808	1.86052	1.4791	0	0	0.852801	0.975661	-0.663205	1.15723	0	0	0
182.73	-3.0535	1.37206	-1.47237	0.932876	-0.64327	1.08357	-0.153183	0.0138792	-0.0916621	0.179748	-0.42203	0	0	-0.116118	-0.156267	-0.21073	0.824854	-0.167303	0	0	-0.613881	-0.267426	0.410274	0.0879758	-0.417088	-0.503177	1.77813	1.5708	0	0	0.827792	0.981655	-0.678494	1.18874	0	0	0
182.74	-3.05659	1.33132	-1.46675	0.932444	-0.649329	1.08539	-0.193593	0.0181912	-0.0948929	0.177071	-0.422414	0	0	-0.172207	-0.163533	-0.218605	0.829918	-0.16862	0	0	-0.665028	-0.203119	0.451256	-0.0774853	-0.884376	-0.303854	1.86055	1.53182	0	0	0.821461	0.962317	-0.616217	1.1613	0	0	0
182.75	-3.06637	1.3678	-1.45322	0.931335	-0.649866	1.08303	-0.151459	0.0159965	-0.0909193	0.180256	-0.422766	0	0	-0.145048	-0.159191	-0.209364	0.834161	-0.17329	0	0	-0.611238	-0.259039	0.409751	0.0745529	-0.420557	-0.504799	1.77924	1.5708	0	0	0.801385	0.971524	-0.640451	1.19007	0	0	0
182.76	-3.06436	1.3271	-1.4523	0.930782	-0.656207	1.08477	-0.19151	0.0197611	-0.0939168	0.177706	-0.422214	0	0	-0.200783	-0.165707	-0.217178	0.837001	-0.17575	0	0	-0.662347	-0.195971	0.448645	-0.0909795	-0.876997	-0.311676	1.86089	1.54087	0	0	0.798274	0.952507	-0.582465	1.16321	0	0	0
182.77	-3.07761	1.36247	-1.43598	0.929638	-0.656835	1.08247	-0.151107	0.0176856	-0.0887248	0.179451	-0.422931	0	0	-0.17503	-0.161953	-0.209958	0.838631	-0.180552	0	0	-0.609583	-0.251791	0.40938	0.0597571	-0.426104	-0.504756	1.77963	1.5708	0	0	0.777408	0.962293	-0.606278	1.19012	0	0	0
182.78	-3.07526	1.32274	-1.43553	0.928958	-0.663116	1.08406	-0.190598	0.0217644	-0.0915013	0.17616	-0.422979	0	0	-0.229936	-0.169082	-0.219494	0.838893	-0.183071	0	0	-0.658944	-0.188449	0.447338	-0.105896	-0.867677	-0.321715	1.86133	1.555	0	0	0.774402	0.944045	-0.551133	1.16569	0	0	0
182.79	-3.09065	1.35699	-1.41683	0.927675	-0.663932	1.08184	-0.151752	0.0198705	-0.0868271	0.176886	-0.424418	0	0	-0.205064	-0.165369	-0.212814	0.837724	-0.1884	0	0	-0.607878	-0.243715	0.409628	0.043778	-0.433034	-0.505672	1.78107	1.5708	0	0	0.754209	0.955522	-0.576135	1.19071	0	0	0
182.8	-3.08503	1.31853	-1.41945	0.926895	-0.670388	1.08332	-0.189547	0.0237647	-0.0880255	0.173676	-0.424816	0	0	-0.258313	-0.171779	-0.222432	0.834932	-0.193001	0	0	-0.656202	-0.180562	0.445841	-0.121675	-0.85726	-0.335613	1.8633	1.56785	0	0	0.752353	0.938129	-0.523834	1.1689	0	0	0
182.81	-3.10078	1.35239	-1.4003	0.925489	-0.671456	1.08109	-0.150695	0.0213529	-0.0823308	0.174406	-0.426258	0	0	-0.233119	-0.167535	-0.216158	0.831351	-0.199827	0	0	-0.606272	-0.235929	0.409155	0.0283962	-0.437592	-0.509939	1.78369	1.5708	0	0	0.73214	0.950767	-0.548769	1.19289	0	0	0
